<?xml version="1.0" encoding="utf-8"?>
<!-- Generator: Adobe Illustrator 19.0.0, SVG Export Plug-In . SVG Version: 6.00 Build 0)  -->
<svg version="1.1" id="Capa_1" xmlns="http://www.w3.org/2000/svg" xmlns:xlink="http://www.w3.org/1999/xlink" x="0px" y="0px"
	 viewBox="122 106 856 582" style="enable-background:new 122 106 856 582;" xml:space="preserve">
<style type="text/css">
	.st0{fill:#E20916;}
	.st1{fill:#129541;}
	.st2{fill:#F7AF37;}
	.st3{fill:#274A99;}
	.st4{fill:#1B1C1B;}
	.st5{fill:#F7AF36;}
	.st6{fill:#D3AC38;}
</style>
<title>hero-carousel-3-svg</title>
<g>
	<path class="st0" d="M537.2,166.2c0.4,0.4,0.4,0.4,0.9,0.8c5.2,4.5,9.2,9.9,12.5,15.9c1.2-1.7,2.3-3.4,3.4-5.2
		c1.4-2.1,2.9-4.1,4.6-6c0.2-0.3,0.4-0.5,0.7-0.8c8.1-9.6,20.7-15.2,33-16.5c1.9-0.1,3.8-0.1,5.7-0.1c0.3,0,0.5,0,0.8,0
		c4,0,7.8,0.2,11.6,1.2c0.4,0.1,0.4,0.1,0.8,0.2c8.1,2,15.4,5.9,21.7,11.4c0.4,0.3,0.4,0.3,0.8,0.7c1.7,1.5,3.2,3,4.6,4.8
		c0.4,0.5,0.4,0.5,0.8,0.9c2.9,3.5,5,7.4,7.2,11.3c1,1.8,2.1,3.6,3.1,5.4c0.4,0.7,0.8,1.4,1.3,2.2c1.5,2.5,2.9,5,4.4,7.5
		c2.5,4.3,5,8.6,7.5,12.9c1,1.8,2.1,3.6,3.1,5.4c1.3,2.1,2.5,4.3,3.8,6.4c2.3,3.9,4.6,7.9,6.9,11.8c2.5,4.3,5,8.6,7.5,12.9
		c1,1.8,2.1,3.6,3.1,5.4c1.3,2.1,2.5,4.3,3.8,6.4c2.3,3.9,4.6,7.9,6.9,11.8c2.5,4.3,5,8.6,7.5,12.9c1,1.8,2.1,3.6,3.1,5.4
		c1.3,2.1,2.5,4.3,3.8,6.4c2.3,3.9,4.6,7.9,6.9,11.8c2.5,4.3,5,8.6,7.5,12.9c1,1.8,2.1,3.6,3.1,5.4c1.3,2.1,2.5,4.3,3.8,6.4
		c0.2,0.3,0.4,0.7,0.6,1.1c0.4,0.7,0.8,1.4,1.2,2.1c1.1,1.8,2.1,3.6,3.2,5.4c0.6,0.9,1.1,1.9,1.7,2.8c0.3,0.4,0.5,0.9,0.8,1.3
		c2.5,4.3,4.7,8.3,6,13.2c0.1,0.4,0.2,0.8,0.3,1.1c1.2,4.5,1.7,8.8,1.7,13.5c0,0.4,0,0.4,0,0.8c0,11.3-3.6,21.8-10.6,30.7
		c-0.2,0.2-0.3,0.4-0.5,0.6c-4.1,5.2-8.9,9.1-14.7,12.4c-0.2,0.1-0.4,0.2-0.6,0.4c-7.8,4.4-16.4,5.7-25.2,6c-0.7,0-0.7,0-1.4,0
		c-1.1,0-2.3,0.1-3.4,0.1c0.2,0.4,0.4,0.8,0.6,1.1c6.4,11.7,8.8,25.1,5.9,38.3c-0.1,0.3-0.1,0.5-0.2,0.8
		c-2.3,9.8-7.4,18.3-14.3,25.6c-0.3,0.4-0.3,0.4-0.7,0.7c-8.8,9.3-22.1,14.6-34.8,14.9c-1.8,0-3.7,0-5.5,0c-0.8,0-1.7,0-2.5,0
		c-2.3,0-4.6,0-6.8,0c-2.2,0-4.4,0-6.6,0c-4.8,0-9.6,0-14.4,0c-4.2,0-8.4,0-12.6,0c-0.3,0-0.6,0-0.8,0c-1.1,0-2.3,0-3.4,0
		c-10.6,0-21.2,0-31.9,0c-9.4,0-18.8,0-28.3,0c-10.6,0-21.2,0-31.8,0c-1.1,0-2.3,0-3.4,0c-0.4,0-0.4,0-0.8,0c-4.2,0-8.4,0-12.6,0
		c-4.8,0-9.5,0-14.3,0c-2.4,0-4.9,0-7.3,0c-2.2,0-4.5,0-6.7,0c-0.8,0-1.6,0-2.4,0c-5.9,0-11.6-0.4-17.3-2.2
		c-0.4-0.1-0.4-0.1-0.9-0.3c-10.1-3.2-19.2-9.5-25.6-18c-0.1-0.2-0.3-0.4-0.4-0.6c-9-11.8-12-25.8-10.7-40.4c0.3-2.1,0.8-4,1.3-6
		c0.1-0.3,0.2-0.5,0.2-0.8c1.2-4.1,2.9-7.7,4.8-11.5c0.4-0.7,0.7-1.4,1.1-2.2c-0.3,0-0.6,0-0.8,0c-15.7,0.3-29.1-3.1-40.7-14.1
		c-0.4-0.4-0.4-0.4-0.9-0.8c-8.2-7.7-13.8-19.9-14.4-31.1c-0.3-14.4,3.7-24.9,11-37.1c1.1-1.8,2.1-3.6,3.1-5.4
		c0.4-0.7,0.9-1.5,1.3-2.2c0.2-0.4,0.4-0.7,0.6-1.1c1.1-1.8,2.1-3.6,3.2-5.4c1.3-2.1,2.5-4.3,3.8-6.4c2.4-4.2,4.9-8.3,7.3-12.5
		c2.6-4.4,5.2-8.8,7.7-13.2c2.8-4.9,5.7-9.7,8.5-14.6c2.4-4.1,4.8-8.1,7.1-12.2c1.3-2.2,2.5-4.3,3.8-6.5c1-1.8,2.1-3.6,3.1-5.4
		c2.4-4.2,4.9-8.3,7.3-12.5c2.6-4.4,5.2-8.8,7.7-13.2c2.8-4.9,5.7-9.7,8.5-14.6c2.4-4.1,4.8-8.1,7.1-12.2c1.3-2.2,2.5-4.3,3.8-6.5
		c1.3-2.2,2.5-4.4,3.8-6.5c0.6-1.1,1.3-2.2,1.9-3.3c0.8-1.4,1.6-2.8,2.5-4.2c4.2-7.3,9-14.1,15.8-19.2c0.4-0.3,0.4-0.3,0.9-0.6
		C491.3,150.2,519.3,150.6,537.2,166.2z M503.2,184.2c-0.1,0.3-0.3,0.5-0.4,0.8c-2.9,5.2-5.9,10.4-9,15.5c-1.6,2.8-3.3,5.5-4.9,8.3
		c-1.8,3.2-3.7,6.4-5.6,9.6c-2.4,4-4.7,8-7,12c-3.2,5.6-6.5,11.3-9.8,16.9c-2.6,4.4-5.2,8.8-7.7,13.2c-2.8,4.9-5.7,9.7-8.5,14.6
		c-2.4,4.1-4.8,8.1-7.1,12.2c-1.3,2.2-2.5,4.3-3.8,6.5c-1,1.8-2.1,3.6-3.1,5.4c-2.4,4.2-4.9,8.3-7.3,12.5c-2.4,4.1-4.8,8.1-7.1,12.2
		c-1.3,2.2-2.5,4.3-3.8,6.5c-1,1.8-2.1,3.6-3.1,5.4c-2.4,4.2-4.9,8.3-7.3,12.5c-2.6,4.4-5.2,8.8-7.7,13.2c-1.7,2.9-3.4,5.8-5.1,8.7
		c-0.2,0.3-0.2,0.3-0.4,0.7c-0.8,1.4-1.7,2.8-2.5,4.2c-0.3,0.5-0.5,0.9-0.8,1.4c-2.4,4.1-2.4,4.1-3.6,5.9c-0.8,1.1-0.8,1.1-0.7,1.9
		c6,0.2,12,0.3,18,0.4c2.8,0,5.6,0.1,8.4,0.2c2.4,0.1,4.9,0.1,7.3,0.1c1.3,0,2.6,0,3.9,0.1c5.3,0.4,5.3,0.4,10-1.6
		c1.5-1.9,2.5-4,3.4-6.2c0.5-1.2,1.1-2.2,1.8-3.3c0.4-0.6,0.7-1.3,1.1-1.9c0.4-0.7,0.9-1.5,1.3-2.2c0.2-0.4,0.4-0.7,0.6-1.1
		c3-5.2,6.1-10.5,9.2-15.7c2.4-4.1,4.8-8.1,7.1-12.2c1.3-2.2,2.5-4.3,3.8-6.5c1-1.8,2.1-3.6,3.1-5.4c2.4-4.2,4.9-8.3,7.3-12.5
		c2.4-4.1,4.8-8.1,7.1-12.2c1.3-2.2,2.5-4.3,3.8-6.5c1-1.8,2.1-3.6,3.1-5.4c2.4-4.2,4.9-8.3,7.3-12.5c2.4-4.1,4.8-8.1,7.1-12.2
		c1.3-2.2,2.5-4.3,3.8-6.5c1-1.8,2.1-3.6,3.1-5.4c0.3-0.5,0.3-0.5,0.6-1.1c0.4-0.7,0.8-1.4,1.2-2.1c1.1-1.8,2.2-3.7,3.2-5.5
		c0.6-1,1.1-1.9,1.7-2.9c0.3-0.5,0.6-0.9,0.8-1.4c0.4-0.7,0.8-1.3,1.2-2c0.2-0.4,0.5-0.8,0.7-1.2c0.5-0.8,0.5-0.8,0.5-1.6
		c1,0.9,1.5,1.8,2.2,2.9c0.2,0.4,0.4,0.7,0.6,1.1c0.2,0.4,0.5,0.8,0.7,1.2c0.2,0.4,0.5,0.8,0.7,1.3c0.5,0.9,1,1.8,1.5,2.6
		c1.1,2,2.3,4,3.5,6c0.5,0.8,0.9,1.6,1.4,2.3c0.2,0.4,0.4,0.8,0.7,1.2c2,3.5,2,3.5,2.7,4.7c0.4,0.8,0.9,1.6,1.3,2.3
		c1,1.8,2.1,3.6,3.1,5.4c0.4,0.6,0.7,1.3,1.1,1.9c0.5,0.8,0.9,1.6,1.4,2.4c0.2,0.4,0.4,0.7,0.6,1.1c0.2,0.3,0.4,0.7,0.6,1.1
		c0.4,0.7,0.8,1.4,1.3,2c1.5,2.3,1.5,2.3,1.4,3.7c-0.2,0.4-0.4,0.7-0.6,1.1c-0.1,0.3-0.3,0.5-0.4,0.8c-0.5,0.9-1.1,1.9-1.7,2.8
		c-0.4,0.7-0.9,1.4-1.3,2.2c-0.2,0.4-0.4,0.7-0.7,1.1c-1,1.8-2.1,3.5-3.1,5.3c-1.9,3.2-3.8,6.5-5.7,9.7c-1.9,3.2-3.7,6.4-5.6,9.6
		c-1.8,3.2-3.7,6.3-5.5,9.5c-0.1,0.2-0.3,0.4-0.4,0.7c-1,1.8-2.1,3.6-3.1,5.4c-0.9,1.6-1.8,3.1-2.7,4.7c-0.1,0.2-0.3,0.4-0.4,0.7
		c-1.7,2.9-3.4,5.9-5.1,8.8c-2.6,4.5-5.3,9-7.9,13.5c-1.2,2-2.3,4-3.5,5.9c-0.6,1.1-1.3,2.2-1.9,3.3c-0.3,0.4-0.5,0.9-0.8,1.3
		c-12.7,21.6-25.3,43.2-38.4,65.5c-0.2,0.3-0.2,0.3-0.4,0.7c-0.3,0.4-0.5,0.9-0.8,1.3c-0.6,1.1-1.3,2.2-1.9,3.3
		c-1.2,2-2.3,4-3.5,5.9c-0.5,0.9-1,1.8-1.6,2.7c-0.3,0.4-0.5,0.9-0.8,1.3c-1.4,2.3-2.7,4.6-4.1,7c-0.2,0.4-0.5,0.8-0.7,1.2
		c-0.4,0.7-0.9,1.5-1.3,2.2c-1,1.7-2,3.4-3.1,5.1c-0.4,0.6-0.4,0.6-0.3,1.3c76.5,0,152.9,0,231.7,0c-1.7-3.1-1.7-3.1-3.4-6.1
		c-0.2-0.4-0.4-0.7-0.6-1.1c-0.2-0.4-0.4-0.8-0.7-1.2c-0.2-0.4-0.5-0.8-0.7-1.2c-1.7-2.9-3.3-5.7-5-8.6c-1.5-2.5-3-5.1-4.5-7.7
		c-2.1-3.5-4.1-7-6.2-10.5c-0.2-0.3-0.4-0.7-0.6-1c-0.2-0.3-0.4-0.6-0.5-0.9c-0.2-0.3-0.3-0.5-0.5-0.8c-0.3-0.6-0.3-0.6-0.7-1
		c-0.9,0-1.8-0.1-2.7-0.1c-0.3,0-0.6,0-0.9,0c-1,0-1.9,0-2.9,0c-0.7,0-1.4,0-2.1,0c-1.9,0-3.8,0-5.8,0c-2.1,0-4.1,0-6.2,0
		c-3.6,0-7.2,0-10.8,0c-5.2,0-10.4,0-15.5,0c-8.4,0-16.8,0-25.2,0c-8.2,0-16.3,0-24.5,0c-0.3,0-0.5,0-0.8,0c-2.5,0-5.1,0-7.6,0
		c-21.2,0-42.4-0.1-63.6-0.1c0.7-1.3,1.5-2.6,2.2-3.9c0.2-0.4,0.4-0.7,0.6-1.1c1.4-2.4,2.8-4.9,4.2-7.3c0.2-0.4,0.4-0.7,0.7-1.1
		c0.2-0.3,0.3-0.6,0.5-0.9c1.2-2.1,2.5-4.2,3.7-6.3c0.2-0.4,0.4-0.7,0.6-1.1c0.4-0.7,0.8-1.5,1.3-2.2c0.9-1.5,1.7-3,2.6-4.5
		c0.4-0.7,0.9-1.5,1.3-2.2c1-1.7,1.9-3.3,2.9-5c0.2-0.3,0.3-0.6,0.5-0.9c0.3-0.5,0.6-1.1,0.9-1.6c0.8-1.2,0.8-1.2,1-2.5
		c71.2,0,142.4,0,215.8,0c-1.4-2.7-1.4-2.7-2.8-5.4c-0.2-0.3-0.4-0.6-0.5-0.9c-0.2-0.3-0.4-0.6-0.6-1c-0.4-0.7-0.8-1.4-1.3-2.1
		c-0.2-0.4-0.4-0.7-0.6-1.1c-1.1-1.8-2.1-3.6-3.2-5.4c-0.3-0.5-0.3-0.5-0.6-1.1c-0.4-0.7-0.9-1.5-1.3-2.2c-1.1-1.8-2.1-3.6-3.2-5.4
		c-1.3-2.1-2.5-4.3-3.8-6.4c-2.3-3.9-4.6-7.9-6.9-11.8c-2.5-4.3-5-8.6-7.5-12.9c-1-1.8-2.1-3.6-3.1-5.4c-1.3-2.1-2.5-4.3-3.8-6.4
		c-2.3-3.9-4.6-7.9-6.9-11.8c-2.9-5-5.8-10-8.7-15c-2.5-4.3-5-8.6-7.5-12.9c-2.5-4.3-5-8.6-7.5-12.9c-1-1.8-2.1-3.6-3.1-5.4
		c-1.3-2.1-2.5-4.3-3.8-6.4c-2.3-3.9-4.6-7.9-6.9-11.8c-2.5-4.3-5-8.6-7.5-12.9c-1-1.8-2.1-3.6-3.1-5.4c-1.3-2.1-2.5-4.3-3.8-6.4
		c-2.4-4.2-4.9-8.3-7.3-12.5c-2-3.5-4.1-6.9-6.1-10.4c-0.4-0.6-0.7-1.3-1.1-1.9c-0.4-0.7-0.8-1.3-1.1-2c-0.2-0.3-0.4-0.7-0.6-1
		c-0.2-0.3-0.3-0.6-0.5-0.9c-0.2-0.2-0.3-0.4-0.5-0.7c-0.2,0-0.5,0-0.7,0c-0.2,0.3-0.3,0.5-0.5,0.8c-2.9,5.1-5.9,10.2-8.9,15.3
		c-1.2,2.1-2.5,4.2-3.7,6.2c-0.2,0.4-0.4,0.7-0.6,1.1c-0.6,1.1-1.3,2.2-1.9,3.3c-0.9,1.6-1.8,3.1-2.7,4.7c-0.2,0.3-0.4,0.7-0.6,1.1
		c-0.3,0.5-0.3,0.5-0.6,1c-0.3,0.5-0.3,0.5-0.6,1c-0.4,0.7-0.8,1.3-1.2,2c-0.3,0.5-0.3,0.5-0.6,1c-0.2,0.3-0.4,0.6-0.6,0.8
		c-0.5,1.1-0.3,1.5,0,2.6c0.4,0.9,0.4,0.9,0.9,1.7c0.2,0.3,0.4,0.7,0.6,1c0.2,0.4,0.4,0.7,0.6,1.1c0.2,0.4,0.4,0.7,0.6,1.1
		c1.8,3.1,3.6,6.2,5.5,9.4c1.2,2.1,2.5,4.2,3.7,6.3c0.2,0.4,0.4,0.7,0.6,1.1c0.4,0.7,0.9,1.5,1.3,2.2c1.1,1.8,2.1,3.6,3.2,5.4
		c1.3,2.1,2.5,4.3,3.8,6.4c2.3,3.9,4.6,7.9,6.9,11.8c2.9,5,5.8,10,8.7,15c2.5,4.3,5,8.6,7.5,12.9c2.5,4.3,5,8.6,7.5,12.9
		c1,1.8,2.1,3.6,3.1,5.4c1.3,2.1,2.5,4.3,3.8,6.4c2.3,3.9,4.6,7.9,6.9,11.8c2.5,4.3,5,8.6,7.5,12.9c0.8,1.4,1.6,2.8,2.4,4.2
		c2.8,4.7,5.5,9.5,8.3,14.2c-15.7,0-31.5,0-47.7,0c-0.2-0.6-0.5-1.2-0.7-1.8c-0.3-0.6-0.7-1.3-1.1-1.9c-0.2-0.4-0.4-0.7-0.6-1.1
		c-0.2-0.4-0.5-0.8-0.7-1.2c-0.2-0.4-0.5-0.8-0.7-1.3c-2-3.4-3.9-6.7-5.9-10c-1.9-3.2-3.7-6.3-5.5-9.5c-1.6-2.8-3.3-5.6-4.9-8.4
		c-2.4-4-4.7-8-7-12c-3.2-5.6-6.5-11.3-9.8-16.9c-2.4-4.1-4.8-8.1-7.1-12.2c-1-1.8-2.1-3.6-3.1-5.4c-0.4-0.7-0.8-1.4-1.3-2.2
		c-0.3-0.5-0.3-0.5-0.6-1.1c-1.9-3.3-1.9-3.3-2.5-4.3c-0.4-0.7-0.8-1.4-1.3-2.2c-1-1.8-2.1-3.6-3.1-5.4c-2.3-3.9-4.6-7.9-6.9-11.8
		c-2.5-4.3-5-8.6-7.5-12.9c-1-1.8-2.1-3.6-3.1-5.4c-1.3-2.1-2.5-4.3-3.8-6.4c-2.3-3.9-4.6-7.9-6.9-11.8c-2.9-5-5.8-10-8.7-15
		c-3.2-5.4-6.3-10.8-9.5-16.2c-0.8-1.4-1.7-2.9-2.5-4.3c-0.4-0.7-0.9-1.5-1.3-2.2c-0.2-0.3-0.4-0.7-0.6-1c-0.2-0.3-0.4-0.6-0.5-0.9
		c-0.2-0.3-0.3-0.5-0.5-0.8c-0.1-0.2-0.2-0.4-0.4-0.6C503.5,184.2,503.4,184.2,503.2,184.2z"/>
	<path class="st1" d="M597.7,154.1c0.3,0,0.5,0,0.8,0c4,0,7.8,0.2,11.7,1.2c0.4,0.1,0.4,0.1,0.8,0.2c8.1,2,15.4,5.9,21.7,11.4
		c0.4,0.3,0.4,0.3,0.8,0.7c1.7,1.5,3.2,3,4.6,4.8c0.4,0.5,0.4,0.5,0.8,0.9c2.8,3.5,5,7.4,7.2,11.3c1,1.8,2.1,3.6,3.1,5.4
		c0.4,0.7,0.8,1.4,1.3,2.2c1.5,2.5,2.9,5,4.4,7.5c2.5,4.3,5,8.6,7.5,12.9c1,1.8,2.1,3.6,3.1,5.4c1.3,2.1,2.5,4.3,3.8,6.4
		c2.3,3.9,4.6,7.9,6.9,11.8c2.5,4.3,5,8.6,7.5,12.9c1,1.8,2.1,3.6,3.1,5.4c1.3,2.1,2.5,4.3,3.8,6.4c2.3,3.9,4.6,7.9,6.9,11.8
		c2.5,4.3,5,8.6,7.5,12.9c1,1.8,2.1,3.6,3.1,5.4c1.3,2.1,2.5,4.3,3.8,6.4c2.3,3.9,4.6,7.9,6.9,11.8c2.5,4.3,5,8.6,7.5,12.9
		c1,1.8,2.1,3.6,3.1,5.4c1.3,2.1,2.5,4.3,3.8,6.4c0.2,0.3,0.4,0.7,0.6,1.1c0.4,0.7,0.8,1.4,1.2,2.1c1.1,1.8,2.1,3.6,3.2,5.4
		c0.6,0.9,1.1,1.9,1.7,2.8c0.3,0.4,0.5,0.9,0.8,1.3c2.5,4.3,4.7,8.3,6,13.2c0.1,0.4,0.2,0.8,0.3,1.1c1.2,4.5,1.7,8.8,1.7,13.5
		c0,0.4,0,0.4,0,0.8c0,11.3-3.6,21.8-10.6,30.7c-0.2,0.2-0.3,0.4-0.5,0.6c-4.1,5.2-8.9,9.1-14.7,12.4c-0.2,0.1-0.4,0.2-0.6,0.4
		c-7.8,4.4-16.4,5.7-25.2,6c-0.7,0-0.7,0-1.4,0c-1.1,0-2.3,0.1-3.4,0.1c0.2,0.4,0.4,0.8,0.6,1.1c6.4,11.7,8.8,25.1,5.9,38.3
		c-0.1,0.3-0.1,0.5-0.2,0.8c-2.3,9.8-7.4,18.3-14.3,25.6c-0.3,0.4-0.3,0.4-0.7,0.7c-8.8,9.2-22.1,14.6-34.8,14.9c-1.8,0-3.6,0-5.4,0
		c-0.8,0-1.6,0-2.4,0c-2.2,0-4.4,0-6.7,0c-2.2,0-4.3,0-6.5,0c-4.7,0-9.3,0-14,0c-4.1,0-8.2,0-12.3,0c-0.3,0-0.5,0-0.8,0
		c-1.1,0-2.2,0-3.3,0c-10.3,0-20.7,0-31,0c-9.2,0-18.3,0-27.5,0c-10.3,0-20.6,0-30.9,0c-1.1,0-2.2,0-3.3,0c-0.4,0-0.4,0-0.8,0
		c-4.1,0-8.2,0-12.2,0c-4.6,0-9.3,0-13.9,0c-2.4,0-4.7,0-7.1,0c-2.2,0-4.3,0-6.5,0c-0.8,0-1.6,0-2.4,0c-8.7,0-15.6-2-22.1-8.2
		c-5.8-6.2-8-13.7-7.9-21.9c0.2-4.4,1.7-7.7,3.7-11.6c114.7-0.2,114.7-0.2,231.7-0.4c-2-3.5-4.1-6.9-6.1-10.5c-1-1.7-2-3.5-3.1-5.2
		c-0.5-0.9-1-1.7-1.5-2.6c-0.9-1.6-1.8-3.1-2.7-4.7c-0.5-0.9-1.1-1.8-1.6-2.7c-0.4-0.6-0.7-1.2-1.1-1.8c-0.5-0.8-0.9-1.6-1.4-2.4
		c-0.7-1.1-1.1-2.2-1.5-3.5c-0.9-2.5-1.9-4.4-4.1-6c-4.5-1.7-10.1-1-14.8-1c-2.1,0-4.1,0-6.2,0c-3.6,0-7.2,0-10.7,0
		c-5.2,0.1-10.4,0.1-15.5,0.1c-8.4,0-16.8,0-25.2,0.1c-8.2,0.1-16.3,0.1-24.5,0.1c-0.3,0-0.5,0-0.8,0c-2.5,0-5.1,0-7.6,0
		c-21.2,0-42.3,0.1-63.5,0.3c0.3-0.7,0.7-1.4,1-2.1c0.3-0.6,0.3-0.6,0.6-1.2c0.6-1.1,1.2-2.2,1.8-3.3c0.2-0.4,0.5-0.8,0.7-1.1
		c0.2-0.4,0.5-0.8,0.7-1.2c0.5-0.9,1-1.7,1.5-2.6c0.1-0.2,0.3-0.4,0.4-0.7c1.3-2.2,2.6-4.4,3.9-6.6c2.1-3.6,4.2-7.2,6.3-10.8
		c2.2-3.7,4.3-7.5,6.5-11.3c106.6-0.2,106.6-0.2,215.4-0.4c-4.1-7.2-4.1-7.2-8.3-14.3c-2.4-4-4.7-8-7-12c-3.2-5.6-6.5-11.3-9.8-16.9
		c-2.4-4.1-4.8-8.1-7.1-12.2c-1-1.8-2.1-3.6-3.1-5.4c-1.3-2.1-2.5-4.3-3.8-6.4c-2.3-3.9-4.6-7.9-6.9-11.8c-2.9-5-5.8-10-8.7-15
		c-2.5-4.3-5-8.6-7.5-12.9c-2.5-4.3-5-8.6-7.5-12.9c-1-1.8-2.1-3.6-3.1-5.4c-1.3-2.1-2.5-4.3-3.8-6.4c-2.3-3.9-4.6-7.9-6.9-11.8
		c-2.5-4.3-5-8.6-7.5-12.9c-1-1.8-2.1-3.6-3.1-5.4c-1.3-2.1-2.5-4.3-3.8-6.4c-2.4-4.2-4.9-8.3-7.3-12.5c-2-3.5-4.1-6.9-6.1-10.4
		c-0.9-1.6-1.9-3.2-2.8-4.8c-0.7-1.2-1.4-2.4-2-3.7c-3.7-7.5-8.5-13.3-16.6-16.1c-6.4-2-13.2-0.9-19,2c-2.4,1.3-4.2,2.9-6.1,4.8
		c0-1.5,0.7-1.9,1.7-3c0.5-0.5,0.5-0.5,1-1c0.9-1,1.8-1.9,2.8-2.8c0.2-0.2,0.4-0.4,0.6-0.6C571.2,158.2,585.2,154.1,597.7,154.1z"/>
	<path class="st2" d="M518.4,238.1c1.3,0.4,1.4,0.7,2,1.9c0.2,0.3,0.4,0.7,0.6,1c0.2,0.4,0.4,0.7,0.6,1.1c0.4,0.8,0.8,1.5,1.3,2.3
		c0.3,0.6,0.3,0.6,0.7,1.2c1,1.8,2.1,3.6,3.1,5.4c1.8,3,3.5,6,5.3,9.1c0.2,0.4,0.4,0.8,0.7,1.2c0.9,1.6,1.8,3.2,2.8,4.8
		c0.5,0.8,0.9,1.6,1.4,2.5c0.5,0.8,0.9,1.6,1.4,2.4c1,1.7,2,3.5,3.1,5.2c0.3,0.4,0.3,0.4,0.5,0.9c0.3,0.5,0.6,1,1,1.5
		c0.7,1,1,1.7,0.8,2.9c-0.8,1.6-1.7,3.2-2.7,4.7c-0.4,0.7-0.9,1.4-1.3,2.2c-0.2,0.4-0.4,0.7-0.7,1.1c-1,1.8-2.1,3.5-3.1,5.3
		c-1.9,3.2-3.8,6.5-5.7,9.7c-1.9,3.2-3.7,6.4-5.6,9.6c-1.8,3.2-3.7,6.3-5.5,9.5c-0.2,0.3-0.2,0.3-0.4,0.7c-1,1.8-2.1,3.6-3.1,5.4
		c-0.9,1.6-1.8,3.1-2.7,4.7c-0.1,0.2-0.3,0.4-0.4,0.7c-1.7,2.9-3.4,5.9-5.1,8.8c-2.6,4.5-5.3,9-7.9,13.5c-1.2,2-2.3,4-3.5,5.9
		c-0.6,1.1-1.3,2.2-1.9,3.3c-0.3,0.4-0.5,0.9-0.8,1.3c-19,32.4-19,32.4-38.4,65.5c-0.2,0.3-0.2,0.3-0.4,0.7
		c-0.3,0.4-0.5,0.9-0.8,1.3c-0.6,1.1-1.3,2.2-1.9,3.3c-1.2,2-2.3,4-3.5,5.9c-0.7,1.1-1.3,2.2-2,3.3c-0.1,0.2-0.3,0.4-0.4,0.7
		c-2,3.4-4,6.8-6,10.2c-1,1.8-2.1,3.5-3.2,5.3c-4,6.6-5.4,13.3-3.9,21c2,7.9,6.4,14,13.3,18.3c2.8,1.6,5.8,2.8,9,3.3
		c0,0.1,0,0.2,0,0.4c-14.5,0.5-27.5-5.6-38.1-15.3c-1.6-1.5-2.9-3.2-4.2-4.9c-0.1-0.2-0.3-0.4-0.4-0.6c-9-11.8-12-25.8-10.7-40.4
		c0.3-2.1,0.8-4,1.3-6c0.1-0.4,0.1-0.4,0.2-0.8c1.2-4.1,2.9-7.7,4.8-11.5c0.4-0.7,0.7-1.4,1.1-2.2c-0.5,0-0.9,0-1.4-0.1
		c-7.4-0.8-14-3.6-18.8-9.5c-5.2-6.6-6.8-13.6-6.2-21.9c0.4-3,1.4-7.2,3.6-9.4c0.6,0,1.2,0,1.8,0c0.4,0,0.8,0,1.2,0
		c0.4,0,0.9,0,1.3,0c0.9,0,1.9,0.1,2.8,0.1c0.2,0,0.5,0,0.7,0c3.4,0.1,6.9,0.1,10.3,0.2c2.8,0,5.6,0.1,8.4,0.2
		c2.4,0.1,4.9,0.1,7.3,0.1c1.3,0,2.6,0,3.9,0.1c4.8,0.2,4.8,0.2,9.3-1.1c2.5-2.5,3.8-5.6,5.2-8.8c1-2.2,2.3-4.2,3.5-6.3
		c0.5-0.8,1-1.6,1.4-2.4c0.4-0.6,0.4-0.6,0.7-1.2c1.1-1.9,2.3-3.9,3.4-5.8c1.9-3.4,3.9-6.7,5.8-10c0.1-0.2,0.3-0.4,0.4-0.7
		c0.5-0.9,1-1.8,1.5-2.6c1.9-3.2,3.7-6.3,5.6-9.5c1.3-2.2,2.5-4.3,3.8-6.5c1-1.8,2.1-3.6,3.1-5.4c2.4-4.2,4.9-8.3,7.3-12.5
		c2.4-4.1,4.8-8.1,7.1-12.2c1.3-2.2,2.5-4.3,3.8-6.5c1-1.8,2.1-3.6,3.1-5.4c2.4-4.2,4.9-8.3,7.3-12.5c2.6-4.4,5.2-8.8,7.7-13.2
		c0.8-1.4,1.6-2.8,2.5-4.2c0.2-0.4,0.4-0.7,0.6-1.1c1.2-2,2.4-4.1,3.6-6.1c0.1-0.2,0.3-0.5,0.4-0.7c0.7-1.1,1.3-2.2,2-3.4
		C515.1,244,516.8,241,518.4,238.1z"/>
	<path class="st3" d="M644.2,425c15.7,0,31.5,0,47.7,0c3.4,6,3.4,6,4.4,8.5c0.1,0.3,0.2,0.6,0.4,0.9c3.6,9.6,4.3,20.4,2.1,30.4
		c-0.1,0.4-0.1,0.4-0.2,0.8c-2.3,9.8-7.4,18.3-14.3,25.6c-0.2,0.2-0.4,0.5-0.7,0.7c-8.8,9.2-22.1,14.6-34.8,14.9c-1.8,0-3.6,0-5.4,0
		c-0.8,0-1.6,0-2.4,0c-2.2,0-4.4,0-6.7,0c-2.2,0-4.3,0-6.5,0c-4.7,0-9.3,0-14,0c-4.1,0-8.2,0-12.3,0c-0.3,0-0.5,0-0.8,0
		c-1.1,0-2.2,0-3.3,0c-10.3,0-20.7,0-31,0c-9.2,0-18.3,0-27.5,0c-10.3,0-20.6,0-30.9,0c-1.1,0-2.2,0-3.3,0c-0.4,0-0.4,0-0.8,0
		c-4.1,0-8.2,0-12.2,0c-4.6,0-9.3,0-13.9,0c-2.4,0-4.7,0-7.1,0c-2.2,0-4.3,0-6.5,0c-0.8,0-1.6,0-2.4,0c-8.7,0-15.6-2-22.1-8.2
		c-5.8-6.2-8-13.7-7.9-21.9c0.2-4.4,1.7-7.7,3.7-11.6c114.7-0.2,114.7-0.2,231.7-0.4c-2-3.5-4.1-6.9-6.1-10.5c-1-1.7-2-3.5-3.1-5.2
		c-0.5-0.9-1-1.7-1.5-2.6c-0.9-1.6-1.8-3.1-2.7-4.7c-0.5-0.9-1.1-1.8-1.6-2.7c-0.3-0.4-0.5-0.9-0.8-1.3c-1.3-2.3-2.7-4.6-4-6.8
		c-0.2-0.4-0.4-0.7-0.7-1.1c-0.4-0.7-0.8-1.4-1.2-2.1c-0.2-0.3-0.4-0.6-0.5-0.9c-0.2-0.3-0.3-0.5-0.5-0.8
		C644.2,425.3,644.2,425.3,644.2,425z"/>
	<path class="st4" d="M907.7,530.5c7.8,0,15.5,0,23.5,0c1.6,4.1,1.6,4.1,2.1,5.7c0.1,0.4,0.2,0.8,0.4,1.1c0.1,0.4,0.2,0.8,0.4,1.2
		c0.2,0.7,0.4,1.3,0.6,2c0.2,0.7,0.4,1.4,0.7,2.2c0.7,2.3,1.4,4.7,2.2,7c0.3,0.8,0.5,1.6,0.8,2.5c1.8,5.8,3.6,11.6,5.5,17.4
		c0.8,2.5,1.6,5,2.4,7.5c0.1,0.3,0.2,0.5,0.3,0.8c2,6.5,4.1,13,6.1,19.5c1.5,4.7,2.9,9.4,4.4,14.1c0.1,0.4,0.2,0.7,0.3,1.1
		c0.5,1.6,1,3.3,1.6,4.9c0.2,0.6,0.4,1.1,0.5,1.7c0.1,0.2,0.2,0.5,0.2,0.7c0.5,1.7,0.5,1.7,0.5,2.5c-6.4,0-12.9,0-19.5,0
		c-1.3-4-2.7-8-3.9-12.1c-0.2-0.8-0.5-1.6-0.7-2.4c-0.2-0.5-0.3-1-0.5-1.5c-0.1-0.5-0.3-0.9-0.4-1.4c-0.3-1.1-0.3-1.1-0.3-1.8
		c-10.1,0.1-20.3,0.2-30.7,0.4c-1.8,5.9-1.8,5.9-3.5,11.8c-0.2,0.7-0.4,1.5-0.7,2.2c-0.1,0.4-0.2,0.8-0.3,1.2
		c-0.1,0.4-0.2,0.7-0.3,1.1c-0.1,0.5-0.1,0.5-0.3,1c-0.2,0.8-0.2,0.8-0.6,1.5c-6.3,0-12.6,0-19.2,0c1.2-4.9,1.2-4.9,1.9-7
		c0.1-0.2,0.1-0.5,0.2-0.7c0.2-0.8,0.5-1.5,0.7-2.3c0.2-0.5,0.3-1.1,0.5-1.6c0.4-1.2,0.7-2.3,1.1-3.5c0.9-2.8,1.8-5.6,2.7-8.4
		c0.3-1,0.6-1.9,0.9-2.9c1.7-5.5,3.4-11,5.2-16.4c0.7-2.1,1.3-4.2,2-6.3c0.1-0.2,0.1-0.5,0.2-0.7c2.3-7.2,4.5-14.4,6.8-21.6
		c0.3-1.1,0.7-2.1,1-3.2c0.2-0.7,0.4-1.4,0.7-2.1C904.6,540.6,906.2,535.6,907.7,530.5z M919.3,547.5c-2,6.7-3.9,13.4-5.8,20.1
		c-0.4,1.4-0.8,2.9-1.2,4.3c-0.3,1.1-0.6,2.3-1,3.4c-0.2,0.5-0.3,1.1-0.5,1.6c-0.2,0.7-0.4,1.5-0.6,2.2c-0.1,0.4-0.2,0.8-0.4,1.3
		c-0.5,1.9-1,3.8-1.5,5.8c7.2,0,14.3,0,21.7,0c-0.3-1.8-0.6-3.5-1.1-5.3c-0.1-0.3-0.1-0.5-0.2-0.8c-0.2-0.9-0.5-1.8-0.7-2.6
		c-0.2-0.6-0.3-1.2-0.5-1.9c-0.5-1.6-0.9-3.3-1.4-4.9c-0.5-1.6-0.9-3.3-1.4-4.9c-1.7-6.1-3.4-12.2-5.2-18.3
		C919.6,547.5,919.4,547.5,919.3,547.5z"/>
	<path class="st4" d="M170.9,530.5c0.4,0,0.8,0,1.3,0c0.7,0,0.7,0,1.4,0c0.5,0,1,0,1.6,0c0.5,0,1.1,0,1.6,0c1.4,0,2.8,0,4.2,0
		c1.4,0,2.8,0,4.2,0c2.8,0,5.6,0,8.3,0c2.5,7.6,4.9,15.2,7.3,22.8c0.3,0.9,0.5,1.7,0.8,2.6c2.6,8.4,5.3,16.8,7.9,25.2
		c1.8,5.8,3.6,11.6,5.4,17.4c0.1,0.3,0.2,0.6,0.3,0.9c0.9,3,1.9,5.9,2.8,8.9c0.3,1.1,0.7,2.2,1,3.3c0.2,0.7,0.5,1.5,0.7,2.2
		c0.4,1.3,0.8,2.6,1.2,3.8c0.1,0.4,0.2,0.7,0.3,1.1c0.1,0.3,0.2,0.6,0.3,1c0.1,0.3,0.2,0.5,0.3,0.8c0.2,0.7,0.2,0.7,0.2,1.8
		c-6.4,0-12.9,0-19.5,0c-1.3-4.4-1.3-4.4-2.7-9c-0.4-1.4-0.4-1.4-0.9-2.8c-0.2-0.7-0.4-1.5-0.7-2.2c-0.2-0.6-0.2-0.6-0.4-1.2
		c-0.1-0.4-0.2-0.7-0.3-1.1c-0.1-0.5-0.1-0.5-0.3-1c-0.2-0.8-0.2-0.8-0.2-1.9c-10.3,0-20.5,0-31.1,0c-0.5,1.9-1,3.8-1.4,5.8
		c-0.3,1.2-0.7,2.3-1,3.5c-0.1,0.4-0.1,0.4-0.2,0.8c-0.3,0.9-0.6,1.9-0.8,2.8c-0.6,2.1-1.3,4.2-1.9,6.3c-6.3,0-12.6,0-19.2,0
		c0.2-1.7,0.5-3.1,1-4.8c0.1-0.4,0.3-0.9,0.4-1.3c0.1-0.5,0.3-0.9,0.4-1.4c0.2-0.5,0.3-1,0.5-1.5c0.3-1.1,0.7-2.1,1-3.2
		c0.5-1.7,1.1-3.4,1.6-5.1c0.6-1.8,1.1-3.5,1.7-5.3c1.2-3.8,2.4-7.6,3.6-11.4c0.1-0.2,0.2-0.5,0.2-0.7c0.4-1.2,0.8-2.5,1.2-3.7
		c0.8-2.5,1.6-5,2.3-7.5c0.1-0.2,0.2-0.5,0.2-0.8c1.3-4,2.5-8,3.8-12c0.2-0.6,0.4-1.1,0.5-1.7c0.1-0.3,0.2-0.6,0.3-0.8
		c0.2-0.6,0.3-1.1,0.5-1.7c0.4-1.4,0.9-2.7,1.3-4.1c2.2-6.9,4.3-13.8,6.4-20.7c0.1-0.3,0.2-0.5,0.2-0.8c0.2-0.7,0.4-1.4,0.6-2
		C169.7,530.5,169.7,530.5,170.9,530.5z M181.2,547.5c-0.1,0.5-0.1,0.5-0.3,0.9c-0.8,2.9-1.6,5.8-2.4,8.7c-0.4,1.5-0.8,3-1.2,4.5
		c-0.4,1.4-0.8,2.9-1.2,4.3c-0.2,0.6-0.3,1.1-0.5,1.7c-0.9,3.1-1.7,6.2-2.6,9.4c-0.2,0.5-0.3,1.1-0.5,1.6c-0.3,1-0.6,2-0.9,3
		c-0.1,0.4-0.3,0.9-0.4,1.4c-0.1,0.4-0.2,0.8-0.3,1.2c-0.3,1-0.3,1-0.2,2.1c7.2,0,14.3,0,21.7,0c-1.2-4.6-1.2-4.6-2.4-9.3
		c-0.1-0.3-0.2-0.6-0.3-0.9c-0.3-1-0.5-1.9-0.8-2.9c-0.2-0.7-0.4-1.4-0.6-2.1c-0.4-1.4-0.8-2.8-1.2-4.3c-0.5-1.8-1-3.6-1.5-5.5
		c-0.4-1.4-0.8-2.8-1.2-4.2c-0.2-0.7-0.4-1.3-0.6-2c-0.3-0.9-0.5-1.9-0.8-2.8c-0.1-0.3-0.2-0.6-0.2-0.8c-0.4-1.3-0.8-2.7-1.3-3.9
		C181.4,547.5,181.3,547.5,181.2,547.5z"/>
	<path class="st4" d="M832.6,530.5c0.3,0,0.6,0,0.9,0c0.9,0,1.9,0,2.8,0c0.3,0,0.7,0,1,0c11.6,0,23.1,0.5,34.7,1.5
		c0,5.2,0,10.5,0,15.9c-2.6,0-5.2,0-7.9,0c-1.6,0-3.3,0-4.9,0c-2.6,0-5.2,0-7.8,0c-2.1,0-4.2,0-6.3,0c-0.8,0-1.6,0-2.4,0
		c-1.1,0-2.3,0-3.4,0c-0.3,0-0.7,0-1,0c-2.2,0-4.1,0.5-6,1.6c-1.4,1.6-1.8,3-1.9,5.1c0,0.3,0,0.6,0,0.9c0,0.3,0,0.6,0,1
		c0,0.3,0,0.7,0,1c0,1,0,2.1-0.1,3.1c0,0.7,0,1.4,0,2.1c0,1.7-0.1,3.5-0.1,5.2c0.7,0,0.7,0,1.4,0c15.7,0.3,15.7,0.3,22.9,0.5
		c0.5,0,1.1,0,1.6,0c0.8,0,1.5,0,2.3,0.1c0.4,0,0.8,0,1.3,0c2.2,0.1,4.4,0.3,6.6,0.4c0,4.9,0,9.8,0,14.8c-3.5,0.1-7,0.2-10.6,0.4
		c-0.3,0-0.5,0-0.8,0c-8.3,0.3-16.5,0.4-24.8,0.3c0,2.1,0.1,4.1,0.1,6.2c0,0.7,0,1.4,0,2.1c0,1,0,2,0.1,3c0,0.3,0,0.6,0,0.9
		c0,2.1,0.5,3.6,1.3,5.5c0.1,0.4,0.2,0.7,0.4,1.1c0.8,0.4,0.8,0.4,1.8,0.7c0.4,0.1,0.7,0.2,1.1,0.4c1.7,0.5,3.3,0.5,5,0.5
		c0.3,0,0.7,0,1.1,0c1.1,0,2.3,0,3.4,0c0.8,0,1.6,0,2.4,0c2.1,0,4.2,0,6.3,0c2.5,0,5,0,7.6,0.1c3.8,0,7.6,0.1,11.5,0.1
		c0,5.1,0,10.3,0,15.5c-1.4,0.5-2.8,0.5-4.3,0.6c-0.5,0-0.5,0-1,0.1c-0.7,0-1.4,0.1-2.1,0.1c-1,0.1-2,0.1-3.1,0.2
		c-7.5,0.5-14.9,0.8-22.4,0.8c-1.1,0-2.3,0-3.4,0c-6.9,0-14.1-0.3-19.3-5.4c-5-5.4-5.3-11.7-5.2-18.7c0-0.5,0-1.1,0-1.6
		c0-1.4,0-2.8,0-4.2c0-1.5,0-3,0-4.5c0-2.5,0-5,0-7.5c0-2.9,0-5.7,0-8.6c0-2.5,0-5,0-7.4c0-1.5,0-3,0-4.4c0-1.4,0-2.8,0-4.2
		c0-0.5,0-1,0-1.5c0-6.9,0.7-13.5,5.4-18.9C820.9,531.9,826.9,530.5,832.6,530.5z"/>
	<path class="st4" d="M268.6,527.6c6.2,0,12.4,0,18.8,0c0,31.3,0,62.5,0,94.7c-5.1,0-10.3,0-15.5,0c-1-1.9-1.9-3.8-2.9-5.8
		c-0.6,0.4-1.1,0.7-1.7,1.1c-7.3,4.6-15.1,6.3-23.6,4.7c-5.1-1.4-9.3-4.1-12.1-8.7c-3.4-6.2-4.6-12.9-4.6-19.9c0-0.3,0-0.7,0-1
		c0-0.7,0-1.4,0-2.1c0-1.1,0-2.1,0-3.2c-0.1-9.4,0.7-20.5,7.6-27.6c4.8-4.3,11-5.2,17.3-5.2c0.4,0,0.4,0,0.7,0
		c5.7,0,10.6,1.2,16.1,2.7C268.6,547.5,268.6,537.7,268.6,527.6z M249.2,571.2c-4.9,5.8-4.2,16.1-3.6,23.2c0.4,4,1,8.2,3.9,11.2
		c3.4,2.3,7.2,2.6,11.2,2c2.6-0.6,6-1.5,7.9-3.4c0-1,0-2.1,0-3.1c0-0.3,0-0.6,0-1c0-1.1,0-2.2,0-3.2c0-0.7,0-1.5,0-2.2
		c0-2,0-3.9,0-5.9c0-2,0-4,0-6c0-3.9,0-7.9,0-11.8c-1.1-0.4-2.2-0.7-3.3-1.1c-0.3-0.1-0.6-0.2-0.9-0.3
		C259.7,568.1,253.1,567.5,249.2,571.2z"/>
	<path class="st4" d="M328.6,554.6c0.9,0,1.8,0,2.7,0c7.6,0,15.9,1.1,21.7,6.5c6.6,7,7.2,17.3,7.2,26.5c0,0.9,0,1.8,0,2.7
		c0,8.8-0.7,19-6.9,25.9c-6.5,6-15.1,6.6-23.5,6.6c-0.3,0-0.6,0-0.9,0c-4.2,0-8.1-0.1-12.2-1.2c-0.2-0.1-0.5-0.1-0.7-0.2
		c-5.1-1.3-9.4-4-12.3-8.5c-4.2-7.1-4.9-15.3-4.8-23.4c0-1,0-1.9,0-2.9c0-9,1-19.1,7.5-25.9C312.5,555.3,320.8,554.6,328.6,554.6z
		 M320.5,572.2c-4.8,6.1-3.5,17.9-2.7,25.1c0.4,3.3,1.1,6.6,3.6,8.9c3.6,2.3,8.3,2.3,12.4,1.6c2.2-0.5,3.8-1.1,5-3
		c4.2-7.5,3.7-19.6,1.7-27.8c-0.8-2.6-1.7-4.7-3.9-6.2c-2.3-1-4.6-1.2-7.1-1.2c-0.3,0-0.6,0-0.9,0
		C325.6,569.5,322.8,569.9,320.5,572.2z"/>
	<path class="st4" d="M719.1,558.5c4.4,3.9,6.3,9.3,6.8,15.1c0.1,1.6,0,3.2,0,4.8c0,0.5,0,1,0,1.4c0,1.3,0,2.6,0,3.9
		c0,1.4,0,2.7,0,4.1c0,2.6,0,5.1,0,7.7c0,2.9,0,5.9,0,8.8c0,6,0,12.1,0,18.1c-6.1,0-12.2,0-18.4,0c0-3,0-6.1-0.1-9.2
		c0-2.2,0-4.3,0-6.5c0-2.8,0-5.6-0.1-8.4c0-2.5,0-4.9,0-7.4c0-0.9,0-1.9,0-2.8c0-1.3,0-2.6,0-4c0-0.4,0-0.8,0-1.2
		c0-3.2-0.2-6-2.3-8.5c-2.4-2.3-4.8-2.7-8-2.7c-2.8,0.1-5.3,0.8-7.9,2c-0.4,0.2-0.7,0.3-1.1,0.5c-2.3,1.1-2.3,1.1-3.7,3
		c-0.1,1.2-0.2,2.3-0.1,3.6c0,0.5,0,0.9,0,1.4c0,1.2,0,2.5,0,3.7c0,1.3,0,2.6,0,3.9c0,2.4,0,4.9,0,7.3c0,2.8,0,5.6,0,8.3
		c0,5.7,0,11.4,0.1,17.1c-6.1,0-12.2,0-18.4,0c0-22.1,0-44.1,0-66.9c5.1,0,10.3,0,15.5,0c1,2,1.9,4.1,2.9,6.1
		c0.4-0.2,0.8-0.5,1.2-0.7c0.3-0.2,0.6-0.3,0.9-0.5c0.6-0.3,1.2-0.7,1.8-1C697.4,554.2,710.1,551.3,719.1,558.5z"/>
	<path class="st4" d="M626.4,554.6c0.9,0,1.8,0,2.7,0c6.8,0,15,0.5,20.2,5.6c4.7,4.9,5.2,12,5.1,18.4c-0.2,4.5-1.3,8.7-4.5,12.1
		c-5.1,4.5-12.1,5-18.6,5c-0.7,0-0.7,0-1.3,0c-1.4,0-2.8,0-4.2,0c-1,0-1.9,0-2.9,0c-2.3,0-4.6,0-6.9,0c0.2,1.1,0.4,2.2,0.6,3.3
		c0.1,0.3,0.1,0.6,0.2,0.9c0.5,2.6,1.5,4.6,3.3,6.4c5.7,3.6,13.9,2.6,20.4,2.6c1.3,0,2.6,0,3.9,0.1c2.6,0,5.1,0.1,7.7,0.1
		c0,3.6,0,7.2,0,10.8c-1.6,0.5-3,0.9-4.6,1.2c-0.7,0.1-0.7,0.1-1.4,0.2c-0.2,0-0.5,0.1-0.7,0.1c-0.7,0.1-1.5,0.2-2.2,0.4
		c-4.6,0.8-9,1.1-13.6,1.1c-0.9,0-1.8,0-2.7,0c-8.1,0.1-16.5-1-22.6-6.7c-7.8-8.6-7.1-22.7-6.7-33.5c0.5-8.7,1.8-17.3,8.6-23.4
		c1.7-1.3,3.7-2,5.7-2.7c0.3-0.1,0.5-0.2,0.8-0.3C617.2,554.8,621.8,554.6,626.4,554.6z M618.9,570.7c-2.6,3-3,7-2.9,10.8
		c0,0.3,0,0.6,0,0.9c0,0.7,0,1.4,0,2.1c2.3,0,4.6,0,6.9,0.1c0.8,0,1.6,0,2.4,0c1.1,0,2.3,0,3.4,0c0.3,0,0.7,0,1.1,0
		c2.3,0,4.5-0.1,6.3-1.7c1.7-2,1.7-3.8,1.7-6.3c-0.2-2.6-0.6-4.4-2.6-6.2C630.9,566.9,623.1,567,618.9,570.7z"/>
	<path class="st4" d="M437.1,554.6c0.9,0,1.9,0,2.8,0c6.9,0,15.1,0.5,20.3,5.6c4.6,4.8,5.2,11.9,5.1,18.2c-0.2,3.7-0.8,7.3-3,10.3
		c-0.3,0.4-0.5,0.7-0.8,1.1c-3.7,4.1-9.2,5.2-14.4,5.7c-1.6,0.1-3.3,0.1-4.9,0.1c-0.7,0-0.7,0-1.3,0c-1.4,0-2.8,0-4.2,0
		c-1,0-1.9,0-2.9,0c-2.3,0-4.6,0-6.9,0c0.2,1.1,0.4,2.2,0.6,3.3c0.1,0.3,0.1,0.6,0.2,0.9c0.5,2.6,1.5,4.6,3.3,6.4
		c5.7,3.6,13.8,2.6,20.3,2.6c1.3,0,2.6,0,3.9,0.1c2.5,0,5,0.1,7.6,0.1c0,3.7,0,7.4,0,11.2c-1.7,0.3-3.5,0.6-5.2,0.9
		c-0.6,0.1-1.2,0.2-1.8,0.3c-5.1,0.9-10,1.4-15.2,1.4c-0.9,0-1.8,0-2.7,0c-7.6,0-16.4-0.7-22.2-6.2c-6.8-7.3-7.2-18.2-7.2-27.6
		c0-0.3,0-0.6,0-0.9c0-9.6,0.4-20.5,7.5-27.8C421.6,555.1,429.8,554.6,437.1,554.6z M429.5,571c-2.1,3.3-2.5,6.6-2.7,10.4
		c0,0.3,0,0.6,0,0.9c0,0.7-0.1,1.4-0.1,2.1c2.3,0,4.6,0,6.9,0.1c0.8,0,1.6,0,2.4,0c1.1,0,2.3,0,3.4,0c0.5,0,0.5,0,1.1,0
		c2.3,0,4.9-0.1,6.7-1.7c1.7-2,1.7-3.8,1.7-6.3c-0.2-2.5-1-4.5-2.7-6.4C441.9,566.7,433,567.1,429.5,571z"/>
	<path class="st4" d="M734.2,530.5c22.8,0,45.6,0,69,0c0,5.5,0,11,0,16.6c-8.4,0-16.7,0-25.3,0c0,24.8,0,49.6,0,75.2
		c-6.2,0-12.4,0-18.8,0c0-24.8,0-49.6,0-75.2c-8.2,0-16.5,0-24.9,0C734.2,541.7,734.2,536.2,734.2,530.5z"/>
	<path class="st4" d="M500.8,555c0.3,0,0.6,0,1,0c7.9,0,16,0.5,23.5,3c0,3.7,0,7.4,0,11.2c-0.9,0-1.8,0-2.8,0c-3,0-6.1,0-9.1,0.1
		c-1.8,0-3.7,0-5.5,0c-1.8,0-3.5,0-5.3,0c-0.7,0-1.4,0-2,0c-0.9,0-1.9,0-2.8,0c-0.4,0-0.4,0-0.8,0c-1.9,0-3.4,0.4-5.2,1.2
		c-1.3,1.4-1.3,3-1.3,4.9c0,0.4,0,0.4,0,0.8c0,1.5,0.1,2.1,1,3.3c2.3,1.7,4.8,1.6,7.5,1.6c0.8,0,1.6,0,2.3,0c1.2,0,2.4,0,3.6,0
		c6.8,0,12.5,0.4,18.4,4.2c4.5,4.7,5,10.1,5,16.4c0,0.7,0,0.7,0,1.4c0,5.1-0.8,9.7-4.2,13.6c-6.9,6.5-18.2,6.3-27.1,6
		c-19.4-0.6-19.4-0.6-21.9-3.2c0-0.8,0-1.6,0-2.4c0-0.2,0-0.5,0-0.7c0-0.8,0-1.5,0-2.3c0-0.5,0-1,0-1.6c0-1.3,0-2.6,0-3.8
		c0.4,0,0.8,0,1.2,0c3.7,0,7.3-0.1,11-0.1c1.9,0,3.8,0,5.6,0c1.8,0,3.6,0,5.4,0c0.7,0,1.4,0,2.1,0c1,0,1.9,0,2.9,0
		c0.3,0,0.6,0,0.9,0c2.2,0,4.6-0.2,6.6-1.4c1.2-1.3,1-3,1-4.7c0-0.4,0-0.4,0-0.8c0-1.4,0-2.1-0.8-3.3c-1.8-1.7-3.7-1.6-6-1.6
		c-0.5,0-0.5,0-1,0c-1.1,0-2.1,0-3.2,0c-17-0.2-17-0.2-22.7-5.9c-4.8-5.2-4.3-12.3-4.1-18.9c0.4-4.9,2.1-9,5.8-12.3
		C485.7,555.2,493.6,555,500.8,555z"/>
	<path class="st4" d="M566.6,554.6c0.3,0,0.6,0,0.9,0c7.2,0.1,14.5,0.7,21.4,3c0,3.6,0,7.2,0,10.8c-2.1,0-2.1,0-4.3,0
		c-1.2,0-2.3,0-3.5,0c-1.2,0-2.4,0-3.6,0c-1.4,0-2.8,0-4.2,0.1c-0.6,0-0.6,0-1.3,0c-4.4,0.1-9,0.5-12.3,3.7
		c-4.7,5.5-4.1,15.3-3.6,22c0.3,3.8,0.9,8.6,3.9,11.3c3.8,2.5,7.8,2.6,12.2,2.7c0.5,0,1,0,1.5,0c1.3,0,2.7,0,4,0
		c1.6,0,3.2,0,4.8,0.1c2.4,0,4.9,0.1,7.3,0.1c0,3.6,0,7.2,0,10.8c-5.6,1.7-5.6,1.7-8.5,2.2c-0.3,0.1-0.7,0.1-1.1,0.2
		c-11.5,1.8-23.8,2.6-34-4.1c-5.9-4.7-8.1-12.8-9.1-20c-0.3-2.8-0.3-5.7-0.3-8.5c0-0.3,0-0.6,0-1c0-9.4,0.7-19.8,7.6-26.9
		C550.8,555.5,558.5,554.5,566.6,554.6z"/>
	<path class="st4" d="M372,527.6c6.1,0,12.2,0,18.4,0c0,3.3,0,3.3,0,6.7c0,7.2,0.1,14.5,0.1,21.7c0,4.4,0,8.8,0,13.2
		c0,3.8,0,7.7,0,11.5c0,2,0,4.1,0,6.1c0,1.9,0,3.8,0,5.7c0,0.7,0,1.4,0,2.1c0,1,0,1.9,0,2.9c0,0.3,0,0.5,0,0.8
		c0,2.9,0.4,5.5,2.3,7.8c1.2,1.1,2.3,1.4,3.9,1.7c0.4,0.1,0.9,0.2,1.3,0.3c0.9,0.2,1.8,0.3,2.7,0.4c1.1,0.2,1.1,0.2,1.5,0.5
		c0,1,0,2,0,3c0,0.3,0,0.6,0,0.9c0,1,0,1.9,0,2.9c0,0.6,0,1.3,0,1.9c0,1.6,0,3.2,0,4.7c-1.9,0-3.8,0-5.7,0.1c-0.6,0-1.3,0-1.9,0
		c-6.6,0.1-13-0.4-18.1-5.2c-3.5-3.9-4.7-9-4.6-14.1c0-0.3,0-0.6,0-1c0-1.1,0-2.2,0-3.2c0-0.8,0-1.6,0-2.3c0-2.1,0-4.2,0-6.3
		c0-2.2,0-4.4,0-6.6c0-4.2,0-8.3,0-12.5c0-4.7,0-9.5,0-14.2C372,547.2,372,537.4,372,527.6z"/>
	<path class="st5" d="M588.2,171.2c3.6,2.9,6.3,6.2,8.7,10.2c0.3,0.5,0.3,0.5,0.7,1.1c0.2,0.3,0.4,0.7,0.6,1
		c0.3,0.5,0.3,0.5,0.6,0.9c0.4,1.1,0.4,1.6,0,2.7c-0.3,0.7-0.7,1.3-1.1,2c-0.2,0.4-0.4,0.8-0.7,1.1c-0.2,0.4-0.5,0.8-0.7,1.2
		c-0.2,0.4-0.5,0.8-0.7,1.3c-0.7,1.3-1.5,2.5-2.2,3.8c-0.2,0.4-0.4,0.7-0.6,1.1c-1,1.6-1.9,3.3-2.9,4.9c-1.9,3.2-3.7,6.4-5.6,9.5
		c-1.1,1.9-2.2,3.8-3.3,5.7c-0.4,0.7-0.8,1.4-1.2,2.1c-1.9,3.2-1.9,3.2-3.7,6.4c-1-0.9-1.7-1.8-2.4-3c-0.2-0.3-0.3-0.6-0.5-0.9
		c-0.2-0.3-0.4-0.6-0.5-1c-0.4-0.7-0.8-1.4-1.2-2.1c-0.2-0.4-0.4-0.7-0.6-1.1c-0.9-1.7-1.9-3.3-2.9-5c-1.6-2.7-3.2-5.5-4.8-8.2
		c-1.7-2.8-3.3-5.7-5-8.5c-0.5-0.9-1.1-1.8-1.6-2.7c-1.1-1.9-2.2-3.8-3.4-5.7c-0.2-0.3-0.4-0.6-0.5-0.9c-0.3-0.5-0.6-1-1-1.5
		c-1-1.6-1-1.6-0.7-2.7c0.2-0.3,0.4-0.6,0.5-0.9c0.2-0.4,0.4-0.8,0.7-1.2c0.2-0.4,0.5-0.9,0.7-1.3c0.1-0.2,0.2-0.4,0.4-0.7
		c3.1-5.4,8.9-9.4,14.9-11.1C574.9,166,582.3,167.2,588.2,171.2z"/>
	<path class="st0" d="M644.2,425c15.7,0,31.5,0,47.7,0c4.2,7.4,6.7,14.5,4.5,23c-2.1,6-5.8,11-11.4,14.2c-1.4,0.7-2.9,1.3-4.3,1.8
		c-0.3,0.1-0.7,0.3-1.1,0.4c-1.2,0.4-2.4,0.6-3.6,0.7c-0.3,0-0.6,0.1-0.9,0.1c-6.1,0.7-6.1,0.7-8-0.5c-1.2-1.3-1.8-2.8-2.5-4.4
		c-0.9-1.9-2-3.6-3-5.4c-0.5-0.8-0.9-1.6-1.4-2.4c-1.4-2.5-2.9-4.9-4.3-7.4c-2.2-3.7-4.3-7.3-6.4-11c-1.4-2.4-2.8-4.8-4.2-7.2
		C644.2,425.4,644.2,425.4,644.2,425z"/>
	<path class="st1" d="M387.3,384.1c0.5,0,0.5,0,1,0c0.4,0,0.8,0,1.2,0c0.4,0,0.9,0,1.3,0c0.5,0,0.9,0,1.4,0c1.3,0,2.5,0,3.8,0
		c1.3,0,2.6,0,3.9,0c2.5,0,5,0,7.5,0c2.8,0,5.7,0,8.5,0c5.8,0,11.7,0,17.5,0c-0.3,0.6-0.7,1.3-1,1.9c-0.2,0.4-0.4,0.7-0.6,1.1
		c-1,1.9-2.1,3.8-3.2,5.7c-0.2,0.3-0.2,0.3-0.4,0.7c-2.1,3.7-4.2,7.3-6.4,10.9c-1.7,2.8-3.3,5.6-4.9,8.5c-1.7,2.9-3.4,5.8-5.1,8.7
		c-0.2,0.3-0.4,0.6-0.6,0.9c-1.3,2.1-1.3,2.1-1.7,2.5c-5.7,0.4-11.7-2.1-16.3-5.4c-0.3-0.2-0.6-0.4-0.8-0.6
		c-5.1-4.1-8.9-11-9.6-17.5c-0.4-6.1,0-11.6,3.3-17C386.5,384.1,386.5,384.1,387.3,384.1z"/>
	<path class="st6" d="M558.5,172.7c0.2,0.1,0.5,0.2,0.7,0.4c-0.5,0.5-1.1,1.1-1.6,1.6c-0.3,0.3-0.6,0.6-0.9,0.9
		c-0.8,0.7-0.8,0.7-1.5,0.7c0.4-1.2,0.8-1.6,1.8-2.4c0.4-0.3,0.4-0.3,0.8-0.7C558.1,173,558.3,172.8,558.5,172.7z"/>
</g>
</svg>
